<?xml version="1.0" encoding="UTF-8" standalone="no"?>
<!DOCTYPE svg PUBLIC "-//W3C//DTD SVG 1.1//EN" "http://www.w3.org/Graphics/SVG/1.1/DTD/svg11.dtd">
<svg width="100%" height="100%" viewBox="0 0 1536 1536" version="1.1" xmlns="http://www.w3.org/2000/svg" xmlns:xlink="http://www.w3.org/1999/xlink" xml:space="preserve" xmlns:serif="http://www.serif.com/" style="fill-rule:evenodd;clip-rule:evenodd;stroke-linejoin:round;stroke-miterlimit:2;">
    <rect id="Plan-de-travail1" serif:id="Plan de travail1" x="0" y="0" width="1535.43" height="1535.43" style="fill:none;"/>
    <g id="Plan-de-travail11" serif:id="Plan de travail1">
        <path d="M717.388,1272.83C745.895,1272.83 774.26,1287.59 803.194,1290.47C887.909,1298.91 1001.25,1290.51 1065.01,1225.78" style="fill:none;stroke:black;stroke-width:1.04px;stroke-linecap:round;stroke-miterlimit:1.5;"/>
        <path d="M1163.64,1161.12C1145.83,1150.77 1120.46,1130.54 1096.93,1138.57C1056.05,1152.51 1029.18,1201.28 1058.16,1239.92C1093.99,1287.68 1164.35,1254.25 1173.04,1201.87C1175.2,1188.86 1174.58,1174.42 1163.64,1161.12Z" style="fill:none;stroke:black;stroke-width:1.04px;stroke-linecap:round;stroke-miterlimit:1.5;"/>
        <path d="M1120.2,1134.63C1120.2,1099.14 1127.03,1053.47 1085.86,1041.7C1081.45,1040.44 1068.68,1037.9 1064.17,1040.19C1060.87,1041.87 1059.84,1047.85 1058.41,1050.69C1045.99,1075.35 1041.9,1094.31 1055.59,1121.69C1059.17,1128.84 1067.02,1156.94 1065.81,1156.19C1040.85,1140.71 1009.91,1116.04 988.065,1121.47C973.537,1125.08 961.336,1149.5 956.521,1161.5C952.733,1170.93 946.859,1187.63 950.062,1198.03C959.689,1229.28 1044.89,1211.97 1046.02,1213.11C1051.95,1219.14 1031.8,1237.89 1028.71,1241.76C1012.25,1262.39 981.002,1320.07 1012.8,1338.68C1059.64,1366.11 1095.04,1261.09 1095.04,1262.93C1095.04,1272.59 1099.99,1276.7 1104.49,1285.71C1112.59,1301.89 1159.5,1342.9 1177.03,1334C1195.98,1324.39 1205.71,1289.29 1193.92,1269.83C1187.63,1259.44 1180.82,1248.27 1170.65,1243.03C1169.4,1242.38 1160.12,1236.58 1161.04,1235.62C1165.73,1230.78 1227.26,1250.3 1244.48,1247.04C1254.67,1245.1 1299.15,1206.62 1292.09,1199.85C1259.47,1168.55 1174.48,1162.15 1163.69,1162.15C1161.86,1162.15 1195.39,1138.67 1200.76,1135.98C1239.78,1116.41 1221.25,1057.26 1188.85,1040.99C1167.88,1030.46 1128.29,1068.91 1120,1086.05" style="fill:none;stroke:black;stroke-width:1.04px;stroke-linecap:round;stroke-miterlimit:1.5;"/>
        <path d="M765.829,1282.26C765.829,1242.04 767.669,1197.51 786.639,1160.87C799.583,1135.87 846.548,1095.19 850.766,1096.32C854.093,1097.2 860.728,1130.31 862.728,1136.73C868.49,1155.24 867.067,1169.96 862.829,1190.16C856.13,1222.08 835.355,1245.94 810.06,1264.76C803.404,1269.72 773.189,1283.1 773.189,1282.21" style="fill:none;stroke:black;stroke-width:1.04px;stroke-linecap:round;stroke-miterlimit:1.5;"/>
        <path d="M796.123,1290.07C796.123,1339.32 846.14,1383.03 880.788,1407.75C892.095,1415.82 942.673,1418.37 946.793,1412.93C972.298,1379.3 823.001,1290.58 796.123,1290.07Z" style="fill:none;stroke:black;stroke-width:1.04px;stroke-linecap:round;stroke-miterlimit:1.5;"/>
    </g>
</svg>
