<?xml version="1.0" encoding="UTF-8" standalone="no"?>
<!DOCTYPE svg PUBLIC "-//W3C//DTD SVG 1.1//EN" "http://www.w3.org/Graphics/SVG/1.1/DTD/svg11.dtd">
<svg width="100%" height="100%" viewBox="0 0 1536 1536" version="1.1" xmlns="http://www.w3.org/2000/svg" xmlns:xlink="http://www.w3.org/1999/xlink" xml:space="preserve" xmlns:serif="http://www.serif.com/" style="fill-rule:evenodd;clip-rule:evenodd;stroke-linejoin:round;stroke-miterlimit:2;">
    <g transform="matrix(1,0,0,1,0,-95.9415)">
        <g id="Plan-de-travail1" serif:id="Plan de travail1" transform="matrix(1,0,0,1,0,95.9415)">
            <rect x="0" y="0" width="1535.43" height="1535.43" style="fill:none;"/>
            <g transform="matrix(6.12323e-17,1,-1,6.12323e-17,1535.7,0.820841)">
                <path d="M539.266,62.505C321.288,156.687 143.227,306.788 37.134,513.437C3.575,800.926 115.853,981.224 273.17,1128.42C308.554,1044.53 353.239,965.302 418.677,896.5C442.728,754.189 528.984,659.888 640.026,584.719C592.118,505.052 581.382,423.749 592.503,341.484C547.744,249.82 531.98,156.73 539.266,62.505Z"/>
            </g>
        </g>
    </g>
</svg>
