<?xml version="1.0" encoding="UTF-8" standalone="no"?>
<!DOCTYPE svg PUBLIC "-//W3C//DTD SVG 1.1//EN" "http://www.w3.org/Graphics/SVG/1.1/DTD/svg11.dtd">
<svg width="100%" height="100%" viewBox="0 0 659 509" version="1.1" xmlns="http://www.w3.org/2000/svg" xmlns:xlink="http://www.w3.org/1999/xlink" xml:space="preserve" xmlns:serif="http://www.serif.com/" style="fill-rule:evenodd;clip-rule:evenodd;stroke-linecap:round;stroke-linejoin:round;stroke-miterlimit:1.5;">
    <g id="Plan-de-travail1" serif:id="Plan de travail1" transform="matrix(0.82338,0,0,0.847087,0,0)">
        <rect x="0" y="0" width="800" height="600" style="fill:none;"/>
        <g transform="matrix(1.63116,0,0,1.58551,-139.036,-173.266)">
            <path d="M406.596,317.396C376.251,317.396 351.651,341.996 351.651,372.342C351.651,375.483 351.921,378.619 352.456,381.714L406.596,372.342L406.596,317.396Z" style="fill:rgb(241,136,127);fill-opacity:0.25;"/>
        </g>
        <g transform="matrix(1.72019,0,0,1.67205,-45.9162,-358.734)">
            <path d="M406.596,317.396C392.024,317.396 378.049,323.185 367.744,333.489L406.596,372.342L406.596,317.396Z" style="fill:rgb(119,187,185);fill-opacity:0.2;"/>
        </g>
        <g transform="matrix(1.21451,0,0,1.18052,36.1955,10.5341)">
            <g transform="matrix(1,-0,-0,1,-29.8027,-8.92331)">
                <path d="M607.911,165.128L601.911,153.128L595.911,165.128C598.911,162.128 604.911,162.128 607.911,165.128Z" style="fill:rgb(89,89,89);"/>
                <path d="M316.038,465.64L304.038,459.64L316.038,453.64C313.038,456.64 313.038,462.64 316.038,465.64Z" style="fill:rgb(89,89,89);"/>
                <path d="M601.911,162.728L601.911,459.64L313.638,459.64" style="fill:none;stroke:rgb(89,89,89);stroke-width:4px;"/>
            </g>
        </g>
        <g transform="matrix(1.21451,0,0,1.18052,-36.3578,-90.3145)">
            <g transform="matrix(1,-0,-0,1,29.9362,76.5042)">
                <path d="M531.191,230.39C534.996,234.195 541.175,234.195 544.98,230.39C548.785,226.585 548.785,220.407 544.98,216.601C541.175,212.796 534.996,212.796 531.191,216.601C527.386,220.407 527.386,226.585 531.191,230.39Z" style="fill:rgb(119,187,185);"/>
                <path d="M397.047,96.246C393.242,92.441 393.242,86.263 397.047,82.458C400.852,78.653 407.031,78.653 410.836,82.458C414.641,86.263 414.641,92.441 410.836,96.246C407.031,100.051 400.852,100.051 397.047,96.246Z" style="fill:rgb(119,187,185);"/>
                <path d="M538.085,223.496L403.942,89.352" style="fill:none;stroke:rgb(119,187,185);stroke-width:6.5px;"/>
            </g>
        </g>
        <g transform="matrix(1.21451,0,0,1.18052,-36.3578,-90.3145)">
            <g transform="matrix(1,-0,-0,1,29.9362,76.5042)">
                <path d="M408.643,97.894C413.357,95.299 415.078,89.365 412.483,84.651C409.889,79.936 403.955,78.216 399.24,80.81C394.526,83.405 392.805,89.339 395.4,94.053C397.995,98.767 403.928,100.488 408.643,97.894Z" style="fill:rgb(96,128,190);"/>
                <path d="M133.304,249.434C128.59,252.028 122.656,250.308 120.062,245.593C117.467,240.879 119.188,234.945 123.902,232.35C128.616,229.756 134.55,231.477 137.145,236.191C139.74,240.905 138.019,246.839 133.304,249.434Z" style="fill:rgb(96,128,190);"/>
                <path d="M403.942,89.352L128.603,240.892" style="fill:none;stroke:rgb(96,128,190);stroke-width:6.5px;"/>
            </g>
        </g>
        <g transform="matrix(1.21451,0,0,1.18052,-36.3578,-90.3145)">
            <g transform="matrix(1,-0,-0,1,29.9362,76.5042)">
                <path d="M133.304,249.434C138.019,246.839 139.74,240.905 137.145,236.191C134.55,231.477 128.616,229.756 123.902,232.35C119.188,234.945 117.467,240.879 120.062,245.593C122.656,250.308 128.59,252.028 133.304,249.434Z" style="fill:rgb(57,101,129);"/>
                <path d="M72.867,282.697C68.152,285.292 62.218,283.571 59.624,278.857C57.029,274.143 58.75,268.209 63.464,265.614C68.179,263.019 74.113,264.74 76.707,269.454C79.302,274.169 77.581,280.103 72.867,282.697Z" style="fill:rgb(57,101,129);"/>
                <path d="M128.603,240.892L68.166,274.156" style="fill:none;stroke:rgb(57,101,129);stroke-width:6.5px;"/>
            </g>
        </g>
        <g transform="matrix(1.21451,0,0,1.18052,-36.3578,-90.3145)">
            <g transform="matrix(1,-0,-0,1,29.9362,76.5042)">
                <path d="M135.68,234.185C131.979,230.279 125.803,230.114 121.897,233.815C117.991,237.517 117.825,243.693 121.526,247.599C125.228,251.505 131.404,251.67 135.31,247.969C139.216,244.267 139.382,238.091 135.68,234.185Z" style="fill:rgb(253,214,137);"/>
                <path d="M268.464,374.301C272.166,378.207 272,384.383 268.094,388.084C264.188,391.786 258.012,391.62 254.31,387.714C250.609,383.808 250.775,377.632 254.681,373.93C258.587,370.229 264.763,370.395 268.464,374.301Z" style="fill:rgb(253,214,137);"/>
                <path d="M128.603,240.892L261.387,381.007" style="fill:none;stroke:rgb(253,214,137);stroke-width:6.5px;"/>
            </g>
        </g>
        <g transform="matrix(1.21451,0,0,1.18052,-36.3578,-90.3145)">
            <g transform="matrix(1,-0,-0,1,29.9362,76.5042)">
                <path d="M259.683,371.408C254.384,372.348 250.847,377.414 251.788,382.712C252.728,388.01 257.794,391.548 263.092,390.607C268.39,389.666 271.928,384.601 270.987,379.303C270.046,374.005 264.981,370.467 259.683,371.408Z" style="fill:rgb(241,136,127);"/>
                <path d="M429.901,341.183C435.199,340.242 440.265,343.78 441.205,349.078C442.146,354.376 438.608,359.442 433.31,360.383C428.012,361.323 422.947,357.786 422.006,352.487C421.065,347.189 424.603,342.124 429.901,341.183Z" style="fill:rgb(241,136,127);"/>
                <path d="M261.387,381.007L431.606,350.783" style="fill:none;stroke:rgb(241,136,127);stroke-width:6.5px;"/>
            </g>
        </g>
        <g transform="matrix(1.21451,0,0,0.890067,-36.3578,-3.17966)">
            <path d="M568.022,300L568.022,131.176" style="fill:none;stroke:black;stroke-width:4.52px;stroke-dasharray:4.52,9.03,0,0;"/>
        </g>
        <g transform="matrix(1.21451,0,0,0.890067,-165.678,147.085)">
            <path d="M568.022,300L568.022,131.176" style="fill:none;stroke:black;stroke-width:4.52px;stroke-dasharray:4.52,9.03,0,0;"/>
        </g>
        <g transform="matrix(0.811796,0,0,0.789077,406.601,101.716)">
            <g transform="matrix(44.8822,0,0,44.8822,123.937,110.245)">
                <path d="M0.287,-0.323L0.229,-0.123C0.22,-0.094 0.216,-0.073 0.216,-0.06C0.216,-0.048 0.221,-0.038 0.231,-0.03C0.241,-0.023 0.262,-0.019 0.294,-0.018L0.287,-0L-0.032,-0L-0.026,-0.018C0.006,-0.018 0.029,-0.024 0.044,-0.037C0.059,-0.049 0.073,-0.077 0.085,-0.12L0.208,-0.544C0.215,-0.568 0.218,-0.587 0.218,-0.601C0.218,-0.614 0.214,-0.624 0.206,-0.63C0.197,-0.637 0.177,-0.642 0.146,-0.644L0.151,-0.662L0.426,-0.662C0.504,-0.662 0.559,-0.648 0.591,-0.621C0.623,-0.594 0.639,-0.559 0.639,-0.516C0.639,-0.47 0.621,-0.43 0.583,-0.393C0.56,-0.37 0.519,-0.351 0.459,-0.334L0.519,-0.133C0.535,-0.08 0.548,-0.047 0.56,-0.036C0.572,-0.025 0.592,-0.019 0.62,-0.018L0.62,-0L0.414,-0L0.32,-0.323L0.304,-0.322C0.3,-0.322 0.295,-0.323 0.287,-0.323ZM0.294,-0.353C0.305,-0.352 0.315,-0.352 0.323,-0.352C0.37,-0.352 0.409,-0.368 0.44,-0.4C0.471,-0.433 0.486,-0.476 0.486,-0.528C0.486,-0.56 0.478,-0.583 0.461,-0.6C0.445,-0.616 0.424,-0.624 0.397,-0.624C0.39,-0.624 0.383,-0.624 0.374,-0.624L0.294,-0.353Z" style="fill:rgb(119,187,185);fill-rule:nonzero;"/>
            </g>
            <g transform="matrix(29.9215,0,0,29.9215,153.873,110.245)">
                <path d="M0.155,-0.662L0.417,-0.662C0.475,-0.662 0.516,-0.659 0.542,-0.653C0.574,-0.645 0.6,-0.63 0.618,-0.607C0.636,-0.585 0.645,-0.559 0.645,-0.53C0.645,-0.507 0.638,-0.483 0.624,-0.458C0.609,-0.434 0.588,-0.414 0.559,-0.398C0.531,-0.382 0.487,-0.368 0.428,-0.354C0.489,-0.337 0.532,-0.315 0.556,-0.288C0.579,-0.261 0.591,-0.23 0.591,-0.194C0.591,-0.16 0.58,-0.127 0.556,-0.094C0.533,-0.062 0.502,-0.038 0.463,-0.023C0.424,-0.008 0.353,-0 0.25,-0L-0.025,-0L-0.019,-0.018C0.008,-0.018 0.027,-0.021 0.038,-0.025C0.05,-0.03 0.059,-0.038 0.066,-0.048C0.073,-0.058 0.081,-0.08 0.091,-0.112L0.209,-0.52C0.221,-0.561 0.227,-0.589 0.227,-0.603C0.227,-0.614 0.222,-0.623 0.213,-0.631C0.203,-0.638 0.182,-0.643 0.15,-0.644L0.155,-0.662ZM0.305,-0.37C0.349,-0.37 0.384,-0.377 0.409,-0.391C0.435,-0.404 0.455,-0.426 0.471,-0.456C0.486,-0.487 0.494,-0.515 0.494,-0.542C0.494,-0.568 0.486,-0.589 0.47,-0.604C0.454,-0.62 0.433,-0.628 0.406,-0.627L0.379,-0.626L0.305,-0.37ZM0.293,-0.333L0.208,-0.039C0.225,-0.038 0.237,-0.038 0.245,-0.038C0.318,-0.038 0.368,-0.058 0.396,-0.098C0.425,-0.139 0.439,-0.182 0.439,-0.229C0.439,-0.251 0.434,-0.27 0.423,-0.287C0.412,-0.304 0.398,-0.316 0.38,-0.323C0.363,-0.33 0.334,-0.333 0.293,-0.333Z" style="fill:rgb(119,187,185);fill-rule:nonzero;"/>
            </g>
        </g>
        <g transform="matrix(0.811796,0,0,0.789077,153.016,113.441)">
            <g transform="matrix(44.8822,0,0,44.8822,123.937,110.245)">
                <path d="M0.497,-0L-0.032,-0L-0.027,-0.018C0.005,-0.018 0.028,-0.024 0.042,-0.036C0.057,-0.049 0.07,-0.076 0.083,-0.119L0.206,-0.544C0.212,-0.567 0.216,-0.586 0.216,-0.599C0.216,-0.612 0.211,-0.623 0.201,-0.63C0.191,-0.638 0.172,-0.643 0.144,-0.644L0.149,-0.662L0.467,-0.662L0.461,-0.644C0.431,-0.643 0.408,-0.637 0.393,-0.624C0.378,-0.611 0.364,-0.584 0.353,-0.544L0.24,-0.155C0.226,-0.105 0.219,-0.075 0.219,-0.064C0.219,-0.058 0.222,-0.052 0.23,-0.046C0.237,-0.04 0.249,-0.038 0.265,-0.038C0.319,-0.038 0.371,-0.05 0.422,-0.075C0.472,-0.099 0.514,-0.136 0.549,-0.186L0.57,-0.186L0.497,-0Z" style="fill:rgb(96,128,190);fill-rule:nonzero;"/>
            </g>
            <g transform="matrix(29.9215,0,0,29.9215,151.353,110.245)">
                <path d="M0.155,-0.662L0.417,-0.662C0.475,-0.662 0.516,-0.659 0.542,-0.653C0.574,-0.645 0.6,-0.63 0.618,-0.607C0.636,-0.585 0.645,-0.559 0.645,-0.53C0.645,-0.507 0.638,-0.483 0.624,-0.458C0.609,-0.434 0.588,-0.414 0.559,-0.398C0.531,-0.382 0.487,-0.368 0.428,-0.354C0.489,-0.337 0.532,-0.315 0.556,-0.288C0.579,-0.261 0.591,-0.23 0.591,-0.194C0.591,-0.16 0.58,-0.127 0.556,-0.094C0.533,-0.062 0.502,-0.038 0.463,-0.023C0.424,-0.008 0.353,-0 0.25,-0L-0.025,-0L-0.019,-0.018C0.008,-0.018 0.027,-0.021 0.038,-0.025C0.05,-0.03 0.059,-0.038 0.066,-0.048C0.073,-0.058 0.081,-0.08 0.091,-0.112L0.209,-0.52C0.221,-0.561 0.227,-0.589 0.227,-0.603C0.227,-0.614 0.222,-0.623 0.213,-0.631C0.203,-0.638 0.182,-0.643 0.15,-0.644L0.155,-0.662ZM0.305,-0.37C0.349,-0.37 0.384,-0.377 0.409,-0.391C0.435,-0.404 0.455,-0.426 0.471,-0.456C0.486,-0.487 0.494,-0.515 0.494,-0.542C0.494,-0.568 0.486,-0.589 0.47,-0.604C0.454,-0.62 0.433,-0.628 0.406,-0.627L0.379,-0.626L0.305,-0.37ZM0.293,-0.333L0.208,-0.039C0.225,-0.038 0.237,-0.038 0.245,-0.038C0.318,-0.038 0.368,-0.058 0.396,-0.098C0.425,-0.139 0.439,-0.182 0.439,-0.229C0.439,-0.251 0.434,-0.27 0.423,-0.287C0.412,-0.304 0.398,-0.316 0.38,-0.323C0.363,-0.33 0.334,-0.333 0.293,-0.333Z" style="fill:rgb(96,128,190);fill-rule:nonzero;"/>
            </g>
        </g>
        <g transform="matrix(0.811796,0,0,0.789077,-6.52275,200.833)">
            <g transform="matrix(44.8822,0,0,44.8822,123.937,110.245)">
                <path d="M0.545,-0.677L0.387,-0.131C0.377,-0.097 0.372,-0.076 0.372,-0.069C0.372,-0.065 0.373,-0.062 0.375,-0.06C0.378,-0.057 0.381,-0.056 0.384,-0.056C0.389,-0.056 0.396,-0.058 0.403,-0.064C0.415,-0.073 0.43,-0.09 0.447,-0.116L0.464,-0.106C0.418,-0.026 0.368,0.014 0.313,0.014C0.293,0.014 0.278,0.009 0.268,-0.002C0.257,-0.012 0.252,-0.025 0.252,-0.041C0.252,-0.056 0.256,-0.078 0.265,-0.106L0.279,-0.156C0.239,-0.084 0.203,-0.036 0.173,-0.013C0.151,0.005 0.128,0.014 0.107,0.014C0.083,0.014 0.062,0.004 0.045,-0.016C0.028,-0.036 0.02,-0.065 0.02,-0.103C0.02,-0.152 0.031,-0.199 0.052,-0.247C0.074,-0.294 0.099,-0.333 0.127,-0.365C0.155,-0.396 0.182,-0.419 0.207,-0.432C0.233,-0.446 0.258,-0.453 0.283,-0.453C0.295,-0.453 0.307,-0.45 0.317,-0.445C0.327,-0.44 0.338,-0.43 0.351,-0.416L0.387,-0.537C0.396,-0.567 0.4,-0.589 0.4,-0.602C0.4,-0.609 0.397,-0.616 0.391,-0.622C0.385,-0.627 0.377,-0.63 0.368,-0.63C0.363,-0.63 0.357,-0.629 0.351,-0.628L0.355,-0.647L0.516,-0.677L0.545,-0.677ZM0.331,-0.368C0.331,-0.388 0.327,-0.402 0.319,-0.411C0.311,-0.42 0.302,-0.425 0.292,-0.425C0.281,-0.425 0.27,-0.419 0.258,-0.409C0.235,-0.388 0.211,-0.346 0.185,-0.283C0.16,-0.22 0.147,-0.167 0.147,-0.124C0.147,-0.108 0.15,-0.097 0.156,-0.089C0.161,-0.082 0.167,-0.078 0.174,-0.078C0.186,-0.078 0.197,-0.083 0.208,-0.094C0.236,-0.118 0.263,-0.161 0.29,-0.221C0.317,-0.282 0.331,-0.331 0.331,-0.368Z" style="fill:rgb(57,101,129);fill-rule:nonzero;"/>
            </g>
        </g>
        <g transform="matrix(0.811796,0,0,0.789077,303.2,385.443)">
            <g transform="matrix(44.8822,0,0,44.8822,123.937,110.245)">
                <path d="M0.287,-0.323L0.229,-0.123C0.22,-0.094 0.216,-0.073 0.216,-0.06C0.216,-0.048 0.221,-0.038 0.231,-0.03C0.241,-0.023 0.262,-0.019 0.294,-0.018L0.287,-0L-0.032,-0L-0.026,-0.018C0.006,-0.018 0.029,-0.024 0.044,-0.037C0.059,-0.049 0.073,-0.077 0.085,-0.12L0.208,-0.544C0.215,-0.568 0.218,-0.587 0.218,-0.601C0.218,-0.614 0.214,-0.624 0.206,-0.63C0.197,-0.637 0.177,-0.642 0.146,-0.644L0.151,-0.662L0.426,-0.662C0.504,-0.662 0.559,-0.648 0.591,-0.621C0.623,-0.594 0.639,-0.559 0.639,-0.516C0.639,-0.47 0.621,-0.43 0.583,-0.393C0.56,-0.37 0.519,-0.351 0.459,-0.334L0.519,-0.133C0.535,-0.08 0.548,-0.047 0.56,-0.036C0.572,-0.025 0.592,-0.019 0.62,-0.018L0.62,-0L0.414,-0L0.32,-0.323L0.304,-0.322C0.3,-0.322 0.295,-0.323 0.287,-0.323ZM0.294,-0.353C0.305,-0.352 0.315,-0.352 0.323,-0.352C0.37,-0.352 0.409,-0.368 0.44,-0.4C0.471,-0.433 0.486,-0.476 0.486,-0.528C0.486,-0.56 0.478,-0.583 0.461,-0.6C0.445,-0.616 0.424,-0.624 0.397,-0.624C0.39,-0.624 0.383,-0.624 0.374,-0.624L0.294,-0.353Z" style="fill:rgb(241,136,127);fill-rule:nonzero;"/>
            </g>
            <g transform="matrix(29.9215,0,0,29.9215,153.873,110.245)">
                <path d="M0.405,-0.213L0.2,-0.213L0.159,-0.163L0.112,-0.106C0.103,-0.094 0.097,-0.083 0.092,-0.074C0.089,-0.066 0.087,-0.059 0.087,-0.051C0.087,-0.043 0.092,-0.036 0.1,-0.03C0.108,-0.023 0.122,-0.019 0.141,-0.018L0.141,-0L-0.057,-0L-0.052,-0.018C-0.034,-0.021 -0.019,-0.027 -0.005,-0.037C0.013,-0.05 0.04,-0.076 0.074,-0.117L0.543,-0.677L0.565,-0.677L0.543,-0.135C0.542,-0.107 0.542,-0.09 0.542,-0.084C0.542,-0.062 0.546,-0.046 0.555,-0.036C0.564,-0.026 0.579,-0.02 0.6,-0.018L0.595,-0L0.308,-0L0.313,-0.018C0.342,-0.021 0.358,-0.023 0.362,-0.025C0.371,-0.029 0.38,-0.039 0.387,-0.053C0.395,-0.068 0.399,-0.093 0.401,-0.129L0.405,-0.213ZM0.405,-0.253L0.418,-0.469L0.234,-0.253L0.405,-0.253Z" style="fill:rgb(241,136,127);fill-rule:nonzero;"/>
            </g>
        </g>
        <g transform="matrix(0.811796,0,0,0.789077,415.793,351.098)">
            <g transform="matrix(44.8822,0,0,44.8822,163.797,110.245)">
                <path d="M0.405,-0.213L0.2,-0.213L0.159,-0.163L0.112,-0.106C0.103,-0.094 0.097,-0.083 0.092,-0.074C0.089,-0.066 0.087,-0.059 0.087,-0.051C0.087,-0.043 0.092,-0.036 0.1,-0.03C0.108,-0.023 0.122,-0.019 0.141,-0.018L0.141,-0L-0.057,-0L-0.052,-0.018C-0.034,-0.021 -0.019,-0.027 -0.005,-0.037C0.013,-0.05 0.04,-0.076 0.074,-0.117L0.543,-0.677L0.565,-0.677L0.543,-0.135C0.542,-0.107 0.542,-0.09 0.542,-0.084C0.542,-0.062 0.546,-0.046 0.555,-0.036C0.564,-0.026 0.579,-0.02 0.6,-0.018L0.595,-0L0.308,-0L0.313,-0.018C0.342,-0.021 0.358,-0.023 0.362,-0.025C0.371,-0.029 0.38,-0.039 0.387,-0.053C0.395,-0.068 0.399,-0.093 0.401,-0.129L0.405,-0.213ZM0.405,-0.253L0.418,-0.469L0.234,-0.253L0.405,-0.253Z" style="fill:rgb(241,136,127);fill-rule:nonzero;"/>
            </g>
            <g transform="matrix(44.8822,0,0,44.8822,120.19,157.034)">
                <path d="M0.435,-0.677L0.426,-0.65C0.379,-0.617 0.341,-0.579 0.31,-0.535C0.263,-0.467 0.225,-0.385 0.196,-0.287C0.166,-0.19 0.151,-0.099 0.151,-0.014C0.151,0.041 0.164,0.099 0.19,0.162L0.182,0.19C0.094,0.073 0.05,-0.044 0.05,-0.16C0.05,-0.227 0.065,-0.294 0.094,-0.359C0.129,-0.436 0.18,-0.504 0.248,-0.564C0.299,-0.61 0.362,-0.647 0.435,-0.677Z" style="fill:rgb(241,136,127);fill-rule:nonzero;"/>
            </g>
            <g transform="matrix(44.8822,0,0,44.8822,135.136,157.034)">
                <path d="M0.045,-0.423L0.216,-0.453C0.247,-0.404 0.269,-0.351 0.281,-0.292C0.313,-0.34 0.337,-0.373 0.354,-0.392C0.375,-0.417 0.393,-0.434 0.407,-0.441C0.422,-0.449 0.437,-0.453 0.453,-0.453C0.471,-0.453 0.484,-0.448 0.494,-0.438C0.503,-0.428 0.508,-0.415 0.508,-0.398C0.508,-0.383 0.503,-0.37 0.494,-0.36C0.484,-0.35 0.472,-0.345 0.458,-0.345C0.448,-0.345 0.436,-0.347 0.422,-0.351C0.409,-0.355 0.399,-0.356 0.394,-0.356C0.38,-0.356 0.367,-0.352 0.355,-0.342C0.338,-0.328 0.317,-0.3 0.292,-0.256C0.32,-0.159 0.342,-0.099 0.359,-0.078C0.369,-0.065 0.379,-0.059 0.389,-0.059C0.397,-0.059 0.404,-0.061 0.411,-0.065C0.42,-0.072 0.435,-0.089 0.454,-0.116L0.472,-0.106C0.443,-0.06 0.415,-0.027 0.388,-0.008C0.367,0.006 0.346,0.014 0.326,0.014C0.305,0.014 0.288,0.009 0.274,-0C0.26,-0.01 0.248,-0.025 0.237,-0.046C0.227,-0.067 0.214,-0.1 0.199,-0.146C0.161,-0.098 0.131,-0.063 0.11,-0.04C0.088,-0.018 0.07,-0.003 0.056,0.003C0.041,0.01 0.026,0.014 0.01,0.014C-0.007,0.014 -0.021,0.009 -0.031,-0.001C-0.04,-0.011 -0.045,-0.023 -0.045,-0.039C-0.045,-0.056 -0.04,-0.069 -0.029,-0.08C-0.019,-0.091 -0.005,-0.096 0.012,-0.096C0.021,-0.096 0.03,-0.094 0.042,-0.088C0.058,-0.081 0.069,-0.077 0.077,-0.077C0.086,-0.077 0.095,-0.079 0.102,-0.083C0.112,-0.087 0.124,-0.098 0.139,-0.114C0.148,-0.124 0.165,-0.146 0.189,-0.179C0.158,-0.295 0.134,-0.364 0.116,-0.387C0.105,-0.401 0.091,-0.409 0.074,-0.409C0.065,-0.409 0.055,-0.407 0.042,-0.405L0.045,-0.423Z" style="fill:rgb(241,136,127);fill-rule:nonzero;"/>
            </g>
            <g transform="matrix(22.4411,0,0,22.4411,157.577,157.034)">
                <path d="M0.405,-0.213L0.2,-0.213L0.159,-0.163L0.112,-0.106C0.103,-0.094 0.097,-0.083 0.092,-0.074C0.089,-0.066 0.087,-0.059 0.087,-0.051C0.087,-0.043 0.092,-0.036 0.1,-0.03C0.108,-0.023 0.122,-0.019 0.141,-0.018L0.141,-0L-0.057,-0L-0.052,-0.018C-0.034,-0.021 -0.019,-0.027 -0.005,-0.037C0.013,-0.05 0.04,-0.076 0.074,-0.117L0.543,-0.677L0.565,-0.677L0.543,-0.135C0.542,-0.107 0.542,-0.09 0.542,-0.084C0.542,-0.062 0.546,-0.046 0.555,-0.036C0.564,-0.026 0.579,-0.02 0.6,-0.018L0.595,-0L0.308,-0L0.313,-0.018C0.342,-0.021 0.358,-0.023 0.362,-0.025C0.371,-0.029 0.38,-0.039 0.387,-0.053C0.395,-0.068 0.399,-0.093 0.401,-0.129L0.405,-0.213ZM0.405,-0.253L0.418,-0.469L0.234,-0.253L0.405,-0.253Z" style="fill:rgb(241,136,127);fill-rule:nonzero;"/>
            </g>
            <g transform="matrix(29.9215,0,0,29.9215,172.545,157.034)">
                <path d="M-0.017,0.161L-0.028,0.14C0.021,0.112 0.052,0.09 0.064,0.076C0.074,0.064 0.079,0.053 0.079,0.042C0.079,0.029 0.07,0.015 0.053,-0.001C0.037,-0.016 0.026,-0.029 0.02,-0.04C0.016,-0.048 0.014,-0.059 0.014,-0.071C0.014,-0.092 0.022,-0.111 0.037,-0.126C0.053,-0.141 0.072,-0.149 0.095,-0.149C0.117,-0.149 0.135,-0.14 0.152,-0.123C0.168,-0.106 0.176,-0.084 0.176,-0.059C0.176,-0.018 0.16,0.022 0.129,0.062C0.098,0.101 0.049,0.134 -0.017,0.161Z" style="fill:rgb(241,136,127);fill-rule:nonzero;"/>
            </g>
            <g transform="matrix(44.8822,0,0,44.8822,187.506,157.034)">
                <path d="M0.025,-0.409L0.176,-0.453C0.188,-0.438 0.196,-0.424 0.201,-0.41C0.21,-0.387 0.216,-0.355 0.22,-0.314C0.227,-0.234 0.231,-0.149 0.234,-0.058C0.269,-0.104 0.309,-0.165 0.354,-0.24C0.367,-0.263 0.374,-0.285 0.374,-0.305C0.374,-0.317 0.366,-0.329 0.35,-0.341C0.335,-0.352 0.325,-0.361 0.321,-0.367C0.317,-0.374 0.315,-0.382 0.315,-0.392C0.315,-0.408 0.321,-0.423 0.333,-0.435C0.345,-0.447 0.359,-0.453 0.376,-0.453C0.394,-0.453 0.409,-0.446 0.423,-0.432C0.436,-0.418 0.442,-0.402 0.442,-0.384C0.442,-0.362 0.436,-0.337 0.424,-0.308C0.412,-0.279 0.383,-0.23 0.338,-0.16C0.281,-0.07 0.224,0.007 0.169,0.073C0.133,0.114 0.105,0.144 0.083,0.163C0.061,0.181 0.039,0.196 0.015,0.207C0.001,0.213 -0.013,0.216 -0.026,0.216C-0.045,0.216 -0.061,0.209 -0.074,0.196C-0.087,0.183 -0.094,0.168 -0.094,0.15C-0.094,0.132 -0.088,0.117 -0.076,0.104C-0.064,0.092 -0.05,0.086 -0.034,0.086C-0.014,0.086 0.004,0.096 0.021,0.117C0.032,0.131 0.041,0.138 0.048,0.138C0.055,0.138 0.063,0.136 0.07,0.132C0.08,0.127 0.093,0.115 0.111,0.096C0.113,0.055 0.114,0.024 0.114,0.003C0.114,-0.025 0.112,-0.064 0.11,-0.115L0.102,-0.301C0.099,-0.335 0.091,-0.36 0.08,-0.375C0.07,-0.386 0.059,-0.391 0.044,-0.391C0.038,-0.391 0.032,-0.391 0.025,-0.39L0.025,-0.409Z" style="fill:rgb(241,136,127);fill-rule:nonzero;"/>
            </g>
            <g transform="matrix(22.4411,0,0,22.4411,207.427,157.034)">
                <path d="M0.405,-0.213L0.2,-0.213L0.159,-0.163L0.112,-0.106C0.103,-0.094 0.097,-0.083 0.092,-0.074C0.089,-0.066 0.087,-0.059 0.087,-0.051C0.087,-0.043 0.092,-0.036 0.1,-0.03C0.108,-0.023 0.122,-0.019 0.141,-0.018L0.141,-0L-0.057,-0L-0.052,-0.018C-0.034,-0.021 -0.019,-0.027 -0.005,-0.037C0.013,-0.05 0.04,-0.076 0.074,-0.117L0.543,-0.677L0.565,-0.677L0.543,-0.135C0.542,-0.107 0.542,-0.09 0.542,-0.084C0.542,-0.062 0.546,-0.046 0.555,-0.036C0.564,-0.026 0.579,-0.02 0.6,-0.018L0.595,-0L0.308,-0L0.313,-0.018C0.342,-0.021 0.358,-0.023 0.362,-0.025C0.371,-0.029 0.38,-0.039 0.387,-0.053C0.395,-0.068 0.399,-0.093 0.401,-0.129L0.405,-0.213ZM0.405,-0.253L0.418,-0.469L0.234,-0.253L0.405,-0.253Z" style="fill:rgb(241,136,127);fill-rule:nonzero;"/>
            </g>
            <g transform="matrix(44.8822,0,0,44.8822,222.395,157.034)">
                <path d="M-0.113,0.19L-0.104,0.164C-0.067,0.137 -0.035,0.108 -0.009,0.076C0.017,0.044 0.043,-0 0.071,-0.057C0.098,-0.113 0.12,-0.174 0.138,-0.238C0.16,-0.322 0.171,-0.4 0.171,-0.473C0.171,-0.528 0.158,-0.586 0.132,-0.649L0.14,-0.677C0.228,-0.56 0.271,-0.443 0.271,-0.327C0.271,-0.26 0.257,-0.193 0.228,-0.127C0.193,-0.051 0.142,0.017 0.074,0.077C0.022,0.122 -0.04,0.16 -0.113,0.19Z" style="fill:rgb(241,136,127);fill-rule:nonzero;"/>
            </g>
        </g>
        <g transform="matrix(0.811796,0,0,0.789077,-71.9474,283.676)">
            <g transform="matrix(44.8822,0,0,44.8822,162.559,110.245)">
                <path d="M0.747,-0.677L0.701,-0.465L0.683,-0.465C0.68,-0.527 0.666,-0.571 0.641,-0.598C0.616,-0.626 0.58,-0.639 0.535,-0.639C0.488,-0.639 0.441,-0.623 0.394,-0.59C0.347,-0.557 0.307,-0.506 0.274,-0.437C0.241,-0.368 0.225,-0.296 0.225,-0.22C0.225,-0.155 0.239,-0.105 0.269,-0.071C0.298,-0.036 0.332,-0.019 0.372,-0.019C0.388,-0.019 0.408,-0.024 0.432,-0.033L0.483,-0.208C0.491,-0.237 0.496,-0.257 0.496,-0.266C0.496,-0.278 0.49,-0.288 0.48,-0.296C0.47,-0.304 0.452,-0.309 0.427,-0.309L0.432,-0.327L0.718,-0.327L0.713,-0.309C0.696,-0.308 0.683,-0.304 0.674,-0.299C0.664,-0.294 0.656,-0.286 0.651,-0.275C0.648,-0.269 0.643,-0.253 0.636,-0.228L0.576,-0.024C0.507,0.002 0.435,0.015 0.36,0.015C0.302,0.015 0.252,0.005 0.211,-0.017C0.17,-0.038 0.136,-0.071 0.11,-0.117C0.083,-0.163 0.069,-0.215 0.069,-0.274C0.069,-0.399 0.125,-0.502 0.236,-0.583C0.323,-0.646 0.421,-0.677 0.532,-0.677C0.551,-0.677 0.569,-0.676 0.585,-0.674C0.597,-0.673 0.618,-0.668 0.648,-0.661C0.668,-0.656 0.681,-0.653 0.688,-0.653C0.703,-0.653 0.716,-0.661 0.729,-0.677L0.747,-0.677Z" style="fill-rule:nonzero;"/>
            </g>
            <g transform="matrix(44.8822,0,0,44.8822,118.952,157.034)">
                <path d="M0.435,-0.677L0.426,-0.65C0.379,-0.617 0.341,-0.579 0.31,-0.535C0.263,-0.467 0.225,-0.385 0.196,-0.287C0.166,-0.19 0.151,-0.099 0.151,-0.014C0.151,0.041 0.164,0.099 0.19,0.162L0.182,0.19C0.094,0.073 0.05,-0.044 0.05,-0.16C0.05,-0.227 0.065,-0.294 0.094,-0.359C0.129,-0.436 0.18,-0.504 0.248,-0.564C0.299,-0.61 0.362,-0.647 0.435,-0.677Z" style="fill-rule:nonzero;"/>
            </g>
            <g transform="matrix(44.8822,0,0,44.8822,133.898,157.034)">
                <path d="M0.045,-0.423L0.216,-0.453C0.247,-0.404 0.269,-0.351 0.281,-0.292C0.313,-0.34 0.337,-0.373 0.354,-0.392C0.375,-0.417 0.393,-0.434 0.407,-0.441C0.422,-0.449 0.437,-0.453 0.453,-0.453C0.471,-0.453 0.484,-0.448 0.494,-0.438C0.503,-0.428 0.508,-0.415 0.508,-0.398C0.508,-0.383 0.503,-0.37 0.494,-0.36C0.484,-0.35 0.472,-0.345 0.458,-0.345C0.448,-0.345 0.436,-0.347 0.422,-0.351C0.409,-0.355 0.399,-0.356 0.394,-0.356C0.38,-0.356 0.367,-0.352 0.355,-0.342C0.338,-0.328 0.317,-0.3 0.292,-0.256C0.32,-0.159 0.342,-0.099 0.359,-0.078C0.369,-0.065 0.379,-0.059 0.389,-0.059C0.397,-0.059 0.404,-0.061 0.411,-0.065C0.42,-0.072 0.435,-0.089 0.454,-0.116L0.472,-0.106C0.443,-0.06 0.415,-0.027 0.388,-0.008C0.367,0.006 0.346,0.014 0.326,0.014C0.305,0.014 0.288,0.009 0.274,-0C0.26,-0.01 0.248,-0.025 0.237,-0.046C0.227,-0.067 0.214,-0.1 0.199,-0.146C0.161,-0.098 0.131,-0.063 0.11,-0.04C0.088,-0.018 0.07,-0.003 0.056,0.003C0.041,0.01 0.026,0.014 0.01,0.014C-0.007,0.014 -0.021,0.009 -0.031,-0.001C-0.04,-0.011 -0.045,-0.023 -0.045,-0.039C-0.045,-0.056 -0.04,-0.069 -0.029,-0.08C-0.019,-0.091 -0.005,-0.096 0.012,-0.096C0.021,-0.096 0.03,-0.094 0.042,-0.088C0.058,-0.081 0.069,-0.077 0.077,-0.077C0.086,-0.077 0.095,-0.079 0.102,-0.083C0.112,-0.087 0.124,-0.098 0.139,-0.114C0.148,-0.124 0.165,-0.146 0.189,-0.179C0.158,-0.295 0.134,-0.364 0.116,-0.387C0.105,-0.401 0.091,-0.409 0.074,-0.409C0.065,-0.409 0.055,-0.407 0.042,-0.405L0.045,-0.423Z" style="fill-rule:nonzero;"/>
            </g>
            <g transform="matrix(22.4411,0,0,22.4411,156.339,157.034)">
                <path d="M0.747,-0.677L0.701,-0.465L0.683,-0.465C0.68,-0.527 0.666,-0.571 0.641,-0.598C0.616,-0.626 0.58,-0.639 0.535,-0.639C0.488,-0.639 0.441,-0.623 0.394,-0.59C0.347,-0.557 0.307,-0.506 0.274,-0.437C0.241,-0.368 0.225,-0.296 0.225,-0.22C0.225,-0.155 0.239,-0.105 0.269,-0.071C0.298,-0.036 0.332,-0.019 0.372,-0.019C0.388,-0.019 0.408,-0.024 0.432,-0.033L0.483,-0.208C0.491,-0.237 0.496,-0.257 0.496,-0.266C0.496,-0.278 0.49,-0.288 0.48,-0.296C0.47,-0.304 0.452,-0.309 0.427,-0.309L0.432,-0.327L0.718,-0.327L0.713,-0.309C0.696,-0.308 0.683,-0.304 0.674,-0.299C0.664,-0.294 0.656,-0.286 0.651,-0.275C0.648,-0.269 0.643,-0.253 0.636,-0.228L0.576,-0.024C0.507,0.002 0.435,0.015 0.36,0.015C0.302,0.015 0.252,0.005 0.211,-0.017C0.17,-0.038 0.136,-0.071 0.11,-0.117C0.083,-0.163 0.069,-0.215 0.069,-0.274C0.069,-0.399 0.125,-0.502 0.236,-0.583C0.323,-0.646 0.421,-0.677 0.532,-0.677C0.551,-0.677 0.569,-0.676 0.585,-0.674C0.597,-0.673 0.618,-0.668 0.648,-0.661C0.668,-0.656 0.681,-0.653 0.688,-0.653C0.703,-0.653 0.716,-0.661 0.729,-0.677L0.747,-0.677Z" style="fill-rule:nonzero;"/>
            </g>
            <g transform="matrix(29.9215,0,0,29.9215,172.545,157.034)">
                <path d="M-0.017,0.161L-0.028,0.14C0.021,0.112 0.052,0.09 0.064,0.076C0.074,0.064 0.079,0.053 0.079,0.042C0.079,0.029 0.07,0.015 0.053,-0.001C0.037,-0.016 0.026,-0.029 0.02,-0.04C0.016,-0.048 0.014,-0.059 0.014,-0.071C0.014,-0.092 0.022,-0.111 0.037,-0.126C0.053,-0.141 0.072,-0.149 0.095,-0.149C0.117,-0.149 0.135,-0.14 0.152,-0.123C0.168,-0.106 0.176,-0.084 0.176,-0.059C0.176,-0.018 0.16,0.022 0.129,0.062C0.098,0.101 0.049,0.134 -0.017,0.161Z" style="fill-rule:nonzero;"/>
            </g>
            <g transform="matrix(44.8822,0,0,44.8822,187.506,157.034)">
                <path d="M0.025,-0.409L0.176,-0.453C0.188,-0.438 0.196,-0.424 0.201,-0.41C0.21,-0.387 0.216,-0.355 0.22,-0.314C0.227,-0.234 0.231,-0.149 0.234,-0.058C0.269,-0.104 0.309,-0.165 0.354,-0.24C0.367,-0.263 0.374,-0.285 0.374,-0.305C0.374,-0.317 0.366,-0.329 0.35,-0.341C0.335,-0.352 0.325,-0.361 0.321,-0.367C0.317,-0.374 0.315,-0.382 0.315,-0.392C0.315,-0.408 0.321,-0.423 0.333,-0.435C0.345,-0.447 0.359,-0.453 0.376,-0.453C0.394,-0.453 0.409,-0.446 0.423,-0.432C0.436,-0.418 0.442,-0.402 0.442,-0.384C0.442,-0.362 0.436,-0.337 0.424,-0.308C0.412,-0.279 0.383,-0.23 0.338,-0.16C0.281,-0.07 0.224,0.007 0.169,0.073C0.133,0.114 0.105,0.144 0.083,0.163C0.061,0.181 0.039,0.196 0.015,0.207C0.001,0.213 -0.013,0.216 -0.026,0.216C-0.045,0.216 -0.061,0.209 -0.074,0.196C-0.087,0.183 -0.094,0.168 -0.094,0.15C-0.094,0.132 -0.088,0.117 -0.076,0.104C-0.064,0.092 -0.05,0.086 -0.034,0.086C-0.014,0.086 0.004,0.096 0.021,0.117C0.032,0.131 0.041,0.138 0.048,0.138C0.055,0.138 0.063,0.136 0.07,0.132C0.08,0.127 0.093,0.115 0.111,0.096C0.113,0.055 0.114,0.024 0.114,0.003C0.114,-0.025 0.112,-0.064 0.11,-0.115L0.102,-0.301C0.099,-0.335 0.091,-0.36 0.08,-0.375C0.07,-0.386 0.059,-0.391 0.044,-0.391C0.038,-0.391 0.032,-0.391 0.025,-0.39L0.025,-0.409Z" style="fill-rule:nonzero;"/>
            </g>
            <g transform="matrix(22.4411,0,0,22.4411,207.427,157.034)">
                <path d="M0.747,-0.677L0.701,-0.465L0.683,-0.465C0.68,-0.527 0.666,-0.571 0.641,-0.598C0.616,-0.626 0.58,-0.639 0.535,-0.639C0.488,-0.639 0.441,-0.623 0.394,-0.59C0.347,-0.557 0.307,-0.506 0.274,-0.437C0.241,-0.368 0.225,-0.296 0.225,-0.22C0.225,-0.155 0.239,-0.105 0.269,-0.071C0.298,-0.036 0.332,-0.019 0.372,-0.019C0.388,-0.019 0.408,-0.024 0.432,-0.033L0.483,-0.208C0.491,-0.237 0.496,-0.257 0.496,-0.266C0.496,-0.278 0.49,-0.288 0.48,-0.296C0.47,-0.304 0.452,-0.309 0.427,-0.309L0.432,-0.327L0.718,-0.327L0.713,-0.309C0.696,-0.308 0.683,-0.304 0.674,-0.299C0.664,-0.294 0.656,-0.286 0.651,-0.275C0.648,-0.269 0.643,-0.253 0.636,-0.228L0.576,-0.024C0.507,0.002 0.435,0.015 0.36,0.015C0.302,0.015 0.252,0.005 0.211,-0.017C0.17,-0.038 0.136,-0.071 0.11,-0.117C0.083,-0.163 0.069,-0.215 0.069,-0.274C0.069,-0.399 0.125,-0.502 0.236,-0.583C0.323,-0.646 0.421,-0.677 0.532,-0.677C0.551,-0.677 0.569,-0.676 0.585,-0.674C0.597,-0.673 0.618,-0.668 0.648,-0.661C0.668,-0.656 0.681,-0.653 0.688,-0.653C0.703,-0.653 0.716,-0.661 0.729,-0.677L0.747,-0.677Z" style="fill-rule:nonzero;"/>
            </g>
            <g transform="matrix(44.8822,0,0,44.8822,223.633,157.034)">
                <path d="M-0.113,0.19L-0.104,0.164C-0.067,0.137 -0.035,0.108 -0.009,0.076C0.017,0.044 0.043,-0 0.071,-0.057C0.098,-0.113 0.12,-0.174 0.138,-0.238C0.16,-0.322 0.171,-0.4 0.171,-0.473C0.171,-0.528 0.158,-0.586 0.132,-0.649L0.14,-0.677C0.228,-0.56 0.271,-0.443 0.271,-0.327C0.271,-0.26 0.257,-0.193 0.228,-0.127C0.193,-0.051 0.142,0.017 0.074,0.077C0.022,0.122 -0.04,0.16 -0.113,0.19Z" style="fill-rule:nonzero;"/>
            </g>
        </g>
        <g transform="matrix(0.545189,0,0,0.529931,59.0035,196.24)">
            <g transform="matrix(53.4643,0,0,53.4643,160.935,110.245)">
                <path d="M0.378,-0.625L0.304,-0.369L0.327,-0.369C0.386,-0.369 0.429,-0.376 0.456,-0.392C0.483,-0.408 0.507,-0.435 0.525,-0.475L0.543,-0.475L0.469,-0.217L0.452,-0.217C0.455,-0.235 0.457,-0.249 0.457,-0.259C0.457,-0.277 0.451,-0.292 0.441,-0.303C0.43,-0.315 0.416,-0.323 0.399,-0.328C0.388,-0.331 0.365,-0.333 0.331,-0.333L0.292,-0.333L0.229,-0.11C0.223,-0.091 0.221,-0.076 0.221,-0.067C0.221,-0.059 0.224,-0.053 0.231,-0.049C0.242,-0.042 0.262,-0.039 0.291,-0.039C0.346,-0.039 0.399,-0.051 0.448,-0.074C0.497,-0.098 0.541,-0.134 0.58,-0.182L0.6,-0.182L0.531,-0L-0.035,-0L-0.029,-0.018C0.004,-0.018 0.028,-0.024 0.043,-0.037C0.059,-0.049 0.073,-0.077 0.085,-0.12L0.209,-0.546C0.216,-0.57 0.22,-0.588 0.22,-0.602C0.22,-0.614 0.215,-0.624 0.207,-0.631C0.198,-0.637 0.178,-0.642 0.146,-0.644L0.152,-0.662L0.68,-0.662L0.637,-0.497L0.62,-0.497C0.618,-0.529 0.613,-0.552 0.604,-0.565C0.591,-0.586 0.573,-0.601 0.55,-0.611C0.527,-0.621 0.491,-0.625 0.44,-0.625L0.378,-0.625Z" style="fill-opacity:0.5;fill-rule:nonzero;"/>
            </g>
        </g>
        <g transform="matrix(0.545189,0,0,0.529931,200.65,430.12)">
            <g transform="matrix(53.4643,0,0,53.4643,160.935,110.245)">
                <path d="M0.721,-0.677L0.672,-0.467L0.653,-0.467C0.651,-0.524 0.636,-0.567 0.611,-0.595C0.585,-0.623 0.551,-0.637 0.509,-0.637C0.464,-0.637 0.42,-0.618 0.375,-0.58C0.33,-0.541 0.293,-0.482 0.262,-0.403C0.237,-0.339 0.224,-0.276 0.224,-0.213C0.224,-0.157 0.238,-0.115 0.265,-0.085C0.293,-0.056 0.331,-0.041 0.378,-0.041C0.417,-0.041 0.452,-0.049 0.484,-0.066C0.516,-0.083 0.549,-0.111 0.581,-0.149L0.604,-0.149C0.564,-0.088 0.523,-0.046 0.482,-0.021C0.441,0.003 0.391,0.015 0.331,0.015C0.251,0.015 0.187,-0.009 0.138,-0.057C0.09,-0.106 0.065,-0.169 0.065,-0.247C0.065,-0.319 0.085,-0.389 0.124,-0.455C0.162,-0.522 0.218,-0.575 0.291,-0.616C0.364,-0.657 0.436,-0.677 0.508,-0.677C0.535,-0.677 0.569,-0.671 0.61,-0.66C0.631,-0.654 0.645,-0.651 0.653,-0.651C0.67,-0.651 0.686,-0.66 0.703,-0.677L0.721,-0.677Z" style="fill-opacity:0.5;fill-rule:nonzero;"/>
            </g>
        </g>
        <g transform="matrix(0.545189,0,0,0.529931,393.822,17.1)">
            <g transform="matrix(53.4643,0,0,53.4643,159.46,110.245)">
                <path d="M-0.036,-0L-0.03,-0.018C0.002,-0.018 0.026,-0.025 0.042,-0.038C0.059,-0.051 0.072,-0.076 0.083,-0.112L0.203,-0.529C0.211,-0.557 0.215,-0.579 0.215,-0.597C0.215,-0.612 0.21,-0.623 0.201,-0.63C0.192,-0.637 0.169,-0.642 0.131,-0.644L0.137,-0.662L0.364,-0.662C0.483,-0.662 0.569,-0.638 0.622,-0.59C0.675,-0.541 0.702,-0.473 0.702,-0.386C0.702,-0.325 0.689,-0.273 0.665,-0.231C0.617,-0.15 0.56,-0.091 0.495,-0.055C0.429,-0.018 0.344,-0 0.241,-0L-0.036,-0ZM0.377,-0.623L0.232,-0.121C0.225,-0.098 0.222,-0.081 0.222,-0.071C0.222,-0.062 0.225,-0.055 0.233,-0.049C0.243,-0.042 0.257,-0.038 0.276,-0.038C0.322,-0.038 0.363,-0.052 0.399,-0.081C0.446,-0.118 0.481,-0.167 0.505,-0.229C0.529,-0.292 0.542,-0.353 0.542,-0.415C0.542,-0.459 0.535,-0.497 0.521,-0.53C0.507,-0.563 0.485,-0.588 0.456,-0.605C0.435,-0.617 0.409,-0.623 0.377,-0.623Z" style="fill-opacity:0.5;fill-rule:nonzero;"/>
            </g>
        </g>
        <g transform="matrix(0.811796,0,0,0.789077,508.592,225.303)">
            <g transform="matrix(44.8822,0,0,44.8822,163.797,110.245)">
                <path d="M0.155,-0.662L0.417,-0.662C0.475,-0.662 0.516,-0.659 0.542,-0.653C0.574,-0.645 0.6,-0.63 0.618,-0.607C0.636,-0.585 0.645,-0.559 0.645,-0.53C0.645,-0.507 0.638,-0.483 0.624,-0.458C0.609,-0.434 0.588,-0.414 0.559,-0.398C0.531,-0.382 0.487,-0.368 0.428,-0.354C0.489,-0.337 0.532,-0.315 0.556,-0.288C0.579,-0.261 0.591,-0.23 0.591,-0.194C0.591,-0.16 0.58,-0.127 0.556,-0.094C0.533,-0.062 0.502,-0.038 0.463,-0.023C0.424,-0.008 0.353,-0 0.25,-0L-0.025,-0L-0.019,-0.018C0.008,-0.018 0.027,-0.021 0.038,-0.025C0.05,-0.03 0.059,-0.038 0.066,-0.048C0.073,-0.058 0.081,-0.08 0.091,-0.112L0.209,-0.52C0.221,-0.561 0.227,-0.589 0.227,-0.603C0.227,-0.614 0.222,-0.623 0.213,-0.631C0.203,-0.638 0.182,-0.643 0.15,-0.644L0.155,-0.662ZM0.305,-0.37C0.349,-0.37 0.384,-0.377 0.409,-0.391C0.435,-0.404 0.455,-0.426 0.471,-0.456C0.486,-0.487 0.494,-0.515 0.494,-0.542C0.494,-0.568 0.486,-0.589 0.47,-0.604C0.454,-0.62 0.433,-0.628 0.406,-0.627L0.379,-0.626L0.305,-0.37ZM0.293,-0.333L0.208,-0.039C0.225,-0.038 0.237,-0.038 0.245,-0.038C0.318,-0.038 0.368,-0.058 0.396,-0.098C0.425,-0.139 0.439,-0.182 0.439,-0.229C0.439,-0.251 0.434,-0.27 0.423,-0.287C0.412,-0.304 0.398,-0.316 0.38,-0.323C0.363,-0.33 0.334,-0.333 0.293,-0.333Z" style="fill:rgb(119,187,185);fill-rule:nonzero;"/>
            </g>
            <g transform="matrix(44.8822,0,0,44.8822,120.19,157.034)">
                <path d="M0.435,-0.677L0.426,-0.65C0.379,-0.617 0.341,-0.579 0.31,-0.535C0.263,-0.467 0.225,-0.385 0.196,-0.287C0.166,-0.19 0.151,-0.099 0.151,-0.014C0.151,0.041 0.164,0.099 0.19,0.162L0.182,0.19C0.094,0.073 0.05,-0.044 0.05,-0.16C0.05,-0.227 0.065,-0.294 0.094,-0.359C0.129,-0.436 0.18,-0.504 0.248,-0.564C0.299,-0.61 0.362,-0.647 0.435,-0.677Z" style="fill:rgb(119,187,185);fill-rule:nonzero;"/>
            </g>
            <g transform="matrix(44.8822,0,0,44.8822,135.136,157.034)">
                <path d="M0.045,-0.423L0.216,-0.453C0.247,-0.404 0.269,-0.351 0.281,-0.292C0.313,-0.34 0.337,-0.373 0.354,-0.392C0.375,-0.417 0.393,-0.434 0.407,-0.441C0.422,-0.449 0.437,-0.453 0.453,-0.453C0.471,-0.453 0.484,-0.448 0.494,-0.438C0.503,-0.428 0.508,-0.415 0.508,-0.398C0.508,-0.383 0.503,-0.37 0.494,-0.36C0.484,-0.35 0.472,-0.345 0.458,-0.345C0.448,-0.345 0.436,-0.347 0.422,-0.351C0.409,-0.355 0.399,-0.356 0.394,-0.356C0.38,-0.356 0.367,-0.352 0.355,-0.342C0.338,-0.328 0.317,-0.3 0.292,-0.256C0.32,-0.159 0.342,-0.099 0.359,-0.078C0.369,-0.065 0.379,-0.059 0.389,-0.059C0.397,-0.059 0.404,-0.061 0.411,-0.065C0.42,-0.072 0.435,-0.089 0.454,-0.116L0.472,-0.106C0.443,-0.06 0.415,-0.027 0.388,-0.008C0.367,0.006 0.346,0.014 0.326,0.014C0.305,0.014 0.288,0.009 0.274,-0C0.26,-0.01 0.248,-0.025 0.237,-0.046C0.227,-0.067 0.214,-0.1 0.199,-0.146C0.161,-0.098 0.131,-0.063 0.11,-0.04C0.088,-0.018 0.07,-0.003 0.056,0.003C0.041,0.01 0.026,0.014 0.01,0.014C-0.007,0.014 -0.021,0.009 -0.031,-0.001C-0.04,-0.011 -0.045,-0.023 -0.045,-0.039C-0.045,-0.056 -0.04,-0.069 -0.029,-0.08C-0.019,-0.091 -0.005,-0.096 0.012,-0.096C0.021,-0.096 0.03,-0.094 0.042,-0.088C0.058,-0.081 0.069,-0.077 0.077,-0.077C0.086,-0.077 0.095,-0.079 0.102,-0.083C0.112,-0.087 0.124,-0.098 0.139,-0.114C0.148,-0.124 0.165,-0.146 0.189,-0.179C0.158,-0.295 0.134,-0.364 0.116,-0.387C0.105,-0.401 0.091,-0.409 0.074,-0.409C0.065,-0.409 0.055,-0.407 0.042,-0.405L0.045,-0.423Z" style="fill:rgb(119,187,185);fill-rule:nonzero;"/>
            </g>
            <g transform="matrix(22.4411,0,0,22.4411,157.577,157.034)">
                <path d="M0.155,-0.662L0.417,-0.662C0.475,-0.662 0.516,-0.659 0.542,-0.653C0.574,-0.645 0.6,-0.63 0.618,-0.607C0.636,-0.585 0.645,-0.559 0.645,-0.53C0.645,-0.507 0.638,-0.483 0.624,-0.458C0.609,-0.434 0.588,-0.414 0.559,-0.398C0.531,-0.382 0.487,-0.368 0.428,-0.354C0.489,-0.337 0.532,-0.315 0.556,-0.288C0.579,-0.261 0.591,-0.23 0.591,-0.194C0.591,-0.16 0.58,-0.127 0.556,-0.094C0.533,-0.062 0.502,-0.038 0.463,-0.023C0.424,-0.008 0.353,-0 0.25,-0L-0.025,-0L-0.019,-0.018C0.008,-0.018 0.027,-0.021 0.038,-0.025C0.05,-0.03 0.059,-0.038 0.066,-0.048C0.073,-0.058 0.081,-0.08 0.091,-0.112L0.209,-0.52C0.221,-0.561 0.227,-0.589 0.227,-0.603C0.227,-0.614 0.222,-0.623 0.213,-0.631C0.203,-0.638 0.182,-0.643 0.15,-0.644L0.155,-0.662ZM0.305,-0.37C0.349,-0.37 0.384,-0.377 0.409,-0.391C0.435,-0.404 0.455,-0.426 0.471,-0.456C0.486,-0.487 0.494,-0.515 0.494,-0.542C0.494,-0.568 0.486,-0.589 0.47,-0.604C0.454,-0.62 0.433,-0.628 0.406,-0.627L0.379,-0.626L0.305,-0.37ZM0.293,-0.333L0.208,-0.039C0.225,-0.038 0.237,-0.038 0.245,-0.038C0.318,-0.038 0.368,-0.058 0.396,-0.098C0.425,-0.139 0.439,-0.182 0.439,-0.229C0.439,-0.251 0.434,-0.27 0.423,-0.287C0.412,-0.304 0.398,-0.316 0.38,-0.323C0.363,-0.33 0.334,-0.333 0.293,-0.333Z" style="fill:rgb(119,187,185);fill-rule:nonzero;"/>
            </g>
            <g transform="matrix(29.9215,0,0,29.9215,172.545,157.034)">
                <path d="M-0.017,0.161L-0.028,0.14C0.021,0.112 0.052,0.09 0.064,0.076C0.074,0.064 0.079,0.053 0.079,0.042C0.079,0.029 0.07,0.015 0.053,-0.001C0.037,-0.016 0.026,-0.029 0.02,-0.04C0.016,-0.048 0.014,-0.059 0.014,-0.071C0.014,-0.092 0.022,-0.111 0.037,-0.126C0.053,-0.141 0.072,-0.149 0.095,-0.149C0.117,-0.149 0.135,-0.14 0.152,-0.123C0.168,-0.106 0.176,-0.084 0.176,-0.059C0.176,-0.018 0.16,0.022 0.129,0.062C0.098,0.101 0.049,0.134 -0.017,0.161Z" style="fill:rgb(119,187,185);fill-rule:nonzero;"/>
            </g>
            <g transform="matrix(44.8822,0,0,44.8822,187.506,157.034)">
                <path d="M0.025,-0.409L0.176,-0.453C0.188,-0.438 0.196,-0.424 0.201,-0.41C0.21,-0.387 0.216,-0.355 0.22,-0.314C0.227,-0.234 0.231,-0.149 0.234,-0.058C0.269,-0.104 0.309,-0.165 0.354,-0.24C0.367,-0.263 0.374,-0.285 0.374,-0.305C0.374,-0.317 0.366,-0.329 0.35,-0.341C0.335,-0.352 0.325,-0.361 0.321,-0.367C0.317,-0.374 0.315,-0.382 0.315,-0.392C0.315,-0.408 0.321,-0.423 0.333,-0.435C0.345,-0.447 0.359,-0.453 0.376,-0.453C0.394,-0.453 0.409,-0.446 0.423,-0.432C0.436,-0.418 0.442,-0.402 0.442,-0.384C0.442,-0.362 0.436,-0.337 0.424,-0.308C0.412,-0.279 0.383,-0.23 0.338,-0.16C0.281,-0.07 0.224,0.007 0.169,0.073C0.133,0.114 0.105,0.144 0.083,0.163C0.061,0.181 0.039,0.196 0.015,0.207C0.001,0.213 -0.013,0.216 -0.026,0.216C-0.045,0.216 -0.061,0.209 -0.074,0.196C-0.087,0.183 -0.094,0.168 -0.094,0.15C-0.094,0.132 -0.088,0.117 -0.076,0.104C-0.064,0.092 -0.05,0.086 -0.034,0.086C-0.014,0.086 0.004,0.096 0.021,0.117C0.032,0.131 0.041,0.138 0.048,0.138C0.055,0.138 0.063,0.136 0.07,0.132C0.08,0.127 0.093,0.115 0.111,0.096C0.113,0.055 0.114,0.024 0.114,0.003C0.114,-0.025 0.112,-0.064 0.11,-0.115L0.102,-0.301C0.099,-0.335 0.091,-0.36 0.08,-0.375C0.07,-0.386 0.059,-0.391 0.044,-0.391C0.038,-0.391 0.032,-0.391 0.025,-0.39L0.025,-0.409Z" style="fill:rgb(119,187,185);fill-rule:nonzero;"/>
            </g>
            <g transform="matrix(22.4411,0,0,22.4411,207.427,157.034)">
                <path d="M0.155,-0.662L0.417,-0.662C0.475,-0.662 0.516,-0.659 0.542,-0.653C0.574,-0.645 0.6,-0.63 0.618,-0.607C0.636,-0.585 0.645,-0.559 0.645,-0.53C0.645,-0.507 0.638,-0.483 0.624,-0.458C0.609,-0.434 0.588,-0.414 0.559,-0.398C0.531,-0.382 0.487,-0.368 0.428,-0.354C0.489,-0.337 0.532,-0.315 0.556,-0.288C0.579,-0.261 0.591,-0.23 0.591,-0.194C0.591,-0.16 0.58,-0.127 0.556,-0.094C0.533,-0.062 0.502,-0.038 0.463,-0.023C0.424,-0.008 0.353,-0 0.25,-0L-0.025,-0L-0.019,-0.018C0.008,-0.018 0.027,-0.021 0.038,-0.025C0.05,-0.03 0.059,-0.038 0.066,-0.048C0.073,-0.058 0.081,-0.08 0.091,-0.112L0.209,-0.52C0.221,-0.561 0.227,-0.589 0.227,-0.603C0.227,-0.614 0.222,-0.623 0.213,-0.631C0.203,-0.638 0.182,-0.643 0.15,-0.644L0.155,-0.662ZM0.305,-0.37C0.349,-0.37 0.384,-0.377 0.409,-0.391C0.435,-0.404 0.455,-0.426 0.471,-0.456C0.486,-0.487 0.494,-0.515 0.494,-0.542C0.494,-0.568 0.486,-0.589 0.47,-0.604C0.454,-0.62 0.433,-0.628 0.406,-0.627L0.379,-0.626L0.305,-0.37ZM0.293,-0.333L0.208,-0.039C0.225,-0.038 0.237,-0.038 0.245,-0.038C0.318,-0.038 0.368,-0.058 0.396,-0.098C0.425,-0.139 0.439,-0.182 0.439,-0.229C0.439,-0.251 0.434,-0.27 0.423,-0.287C0.412,-0.304 0.398,-0.316 0.38,-0.323C0.363,-0.33 0.334,-0.333 0.293,-0.333Z" style="fill:rgb(119,187,185);fill-rule:nonzero;"/>
            </g>
            <g transform="matrix(44.8822,0,0,44.8822,222.395,157.034)">
                <path d="M-0.113,0.19L-0.104,0.164C-0.067,0.137 -0.035,0.108 -0.009,0.076C0.017,0.044 0.043,-0 0.071,-0.057C0.098,-0.113 0.12,-0.174 0.138,-0.238C0.16,-0.322 0.171,-0.4 0.171,-0.473C0.171,-0.528 0.158,-0.586 0.132,-0.649L0.14,-0.677C0.228,-0.56 0.271,-0.443 0.271,-0.327C0.271,-0.26 0.257,-0.193 0.228,-0.127C0.193,-0.051 0.142,0.017 0.074,0.077C0.022,0.122 -0.04,0.16 -0.113,0.19Z" style="fill:rgb(119,187,185);fill-rule:nonzero;"/>
            </g>
        </g>
        <g transform="matrix(0.811796,0,0,0.789077,139.11,262.847)">
            <g transform="matrix(44.8822,0,0,44.8822,123.937,110.245)">
                <path d="M0.497,-0L-0.032,-0L-0.027,-0.018C0.005,-0.018 0.028,-0.024 0.042,-0.036C0.057,-0.049 0.07,-0.076 0.083,-0.119L0.206,-0.544C0.212,-0.567 0.216,-0.586 0.216,-0.599C0.216,-0.612 0.211,-0.623 0.201,-0.63C0.191,-0.638 0.172,-0.643 0.144,-0.644L0.149,-0.662L0.467,-0.662L0.461,-0.644C0.431,-0.643 0.408,-0.637 0.393,-0.624C0.378,-0.611 0.364,-0.584 0.353,-0.544L0.24,-0.155C0.226,-0.105 0.219,-0.075 0.219,-0.064C0.219,-0.058 0.222,-0.052 0.23,-0.046C0.237,-0.04 0.249,-0.038 0.265,-0.038C0.319,-0.038 0.371,-0.05 0.422,-0.075C0.472,-0.099 0.514,-0.136 0.549,-0.186L0.57,-0.186L0.497,-0Z" style="fill:rgb(246,177,4);fill-rule:nonzero;"/>
            </g>
            <g transform="matrix(29.9215,0,0,29.9215,151.353,110.245)">
                <path d="M0.405,-0.213L0.2,-0.213L0.159,-0.163L0.112,-0.106C0.103,-0.094 0.097,-0.083 0.092,-0.074C0.089,-0.066 0.087,-0.059 0.087,-0.051C0.087,-0.043 0.092,-0.036 0.1,-0.03C0.108,-0.023 0.122,-0.019 0.141,-0.018L0.141,-0L-0.057,-0L-0.052,-0.018C-0.034,-0.021 -0.019,-0.027 -0.005,-0.037C0.013,-0.05 0.04,-0.076 0.074,-0.117L0.543,-0.677L0.565,-0.677L0.543,-0.135C0.542,-0.107 0.542,-0.09 0.542,-0.084C0.542,-0.062 0.546,-0.046 0.555,-0.036C0.564,-0.026 0.579,-0.02 0.6,-0.018L0.595,-0L0.308,-0L0.313,-0.018C0.342,-0.021 0.358,-0.023 0.362,-0.025C0.371,-0.029 0.38,-0.039 0.387,-0.053C0.395,-0.068 0.399,-0.093 0.401,-0.129L0.405,-0.213ZM0.405,-0.253L0.418,-0.469L0.234,-0.253L0.405,-0.253Z" style="fill:rgb(246,177,4);fill-rule:nonzero;"/>
            </g>
        </g>
        <g transform="matrix(0.811796,0,0,0.789077,272.06,488.587)">
            <g transform="matrix(44.8822,0,0,44.8822,123.937,110.245)">
                <path d="M0.025,-0.409L0.176,-0.453C0.188,-0.438 0.196,-0.424 0.201,-0.41C0.21,-0.387 0.216,-0.355 0.22,-0.314C0.227,-0.234 0.231,-0.149 0.234,-0.058C0.269,-0.104 0.309,-0.165 0.354,-0.24C0.367,-0.263 0.374,-0.285 0.374,-0.305C0.374,-0.317 0.366,-0.329 0.35,-0.341C0.335,-0.352 0.325,-0.361 0.321,-0.367C0.317,-0.374 0.315,-0.382 0.315,-0.392C0.315,-0.408 0.321,-0.423 0.333,-0.435C0.345,-0.447 0.359,-0.453 0.376,-0.453C0.394,-0.453 0.409,-0.446 0.423,-0.432C0.436,-0.418 0.442,-0.402 0.442,-0.384C0.442,-0.362 0.436,-0.337 0.424,-0.308C0.412,-0.279 0.383,-0.23 0.338,-0.16C0.281,-0.07 0.224,0.007 0.169,0.073C0.133,0.114 0.105,0.144 0.083,0.163C0.061,0.181 0.039,0.196 0.015,0.207C0.001,0.213 -0.013,0.216 -0.026,0.216C-0.045,0.216 -0.061,0.209 -0.074,0.196C-0.087,0.183 -0.094,0.168 -0.094,0.15C-0.094,0.132 -0.088,0.117 -0.076,0.104C-0.064,0.092 -0.05,0.086 -0.034,0.086C-0.014,0.086 0.004,0.096 0.021,0.117C0.032,0.131 0.041,0.138 0.048,0.138C0.055,0.138 0.063,0.136 0.07,0.132C0.08,0.127 0.093,0.115 0.111,0.096C0.113,0.055 0.114,0.024 0.114,0.003C0.114,-0.025 0.112,-0.064 0.11,-0.115L0.102,-0.301C0.099,-0.335 0.091,-0.36 0.08,-0.375C0.07,-0.386 0.059,-0.391 0.044,-0.391C0.038,-0.391 0.032,-0.391 0.025,-0.39L0.025,-0.409Z" style="fill:rgb(89,89,89);fill-rule:nonzero;"/>
            </g>
            <g transform="matrix(29.9215,0,0,29.9215,143.858,110.245)">
                <path d="M0.354,-0.676C0.386,-0.676 0.413,-0.667 0.435,-0.648C0.458,-0.63 0.474,-0.605 0.484,-0.575C0.494,-0.544 0.499,-0.514 0.499,-0.484C0.499,-0.432 0.492,-0.379 0.478,-0.324C0.465,-0.269 0.446,-0.218 0.422,-0.172C0.398,-0.126 0.371,-0.087 0.342,-0.056C0.323,-0.036 0.301,-0.02 0.274,-0.006C0.248,0.007 0.221,0.014 0.193,0.014C0.167,0.014 0.144,0.006 0.123,-0.01C0.102,-0.025 0.085,-0.048 0.073,-0.078C0.061,-0.108 0.055,-0.14 0.055,-0.174C0.055,-0.249 0.069,-0.324 0.096,-0.399C0.118,-0.462 0.146,-0.516 0.179,-0.561C0.213,-0.607 0.243,-0.637 0.271,-0.653C0.298,-0.668 0.326,-0.676 0.354,-0.676ZM0.357,-0.643C0.348,-0.643 0.339,-0.641 0.332,-0.637C0.325,-0.633 0.317,-0.626 0.309,-0.614C0.301,-0.603 0.29,-0.579 0.278,-0.542C0.255,-0.474 0.229,-0.391 0.201,-0.293C0.18,-0.218 0.167,-0.17 0.163,-0.149C0.156,-0.119 0.153,-0.092 0.153,-0.069C0.153,-0.053 0.158,-0.041 0.166,-0.032C0.175,-0.023 0.186,-0.018 0.198,-0.018C0.212,-0.018 0.222,-0.022 0.231,-0.029C0.248,-0.043 0.263,-0.068 0.274,-0.103C0.301,-0.185 0.334,-0.297 0.375,-0.44C0.393,-0.504 0.402,-0.553 0.402,-0.589C0.402,-0.606 0.398,-0.619 0.389,-0.628C0.38,-0.638 0.37,-0.643 0.357,-0.643Z" style="fill:rgb(89,89,89);fill-rule:nonzero;"/>
            </g>
        </g>
        <g transform="matrix(0.811796,0,0,0.789077,637.554,479.554)">
            <g transform="matrix(44.8822,0,0,44.8822,123.937,110.245)">
                <path d="M0.354,-0.676C0.386,-0.676 0.413,-0.667 0.435,-0.648C0.458,-0.63 0.474,-0.605 0.484,-0.575C0.494,-0.544 0.499,-0.514 0.499,-0.484C0.499,-0.432 0.492,-0.379 0.478,-0.324C0.465,-0.269 0.446,-0.218 0.422,-0.172C0.398,-0.126 0.371,-0.087 0.342,-0.056C0.323,-0.036 0.301,-0.02 0.274,-0.006C0.248,0.007 0.221,0.014 0.193,0.014C0.167,0.014 0.144,0.006 0.123,-0.01C0.102,-0.025 0.085,-0.048 0.073,-0.078C0.061,-0.108 0.055,-0.14 0.055,-0.174C0.055,-0.249 0.069,-0.324 0.096,-0.399C0.118,-0.462 0.146,-0.516 0.179,-0.561C0.213,-0.607 0.243,-0.637 0.271,-0.653C0.298,-0.668 0.326,-0.676 0.354,-0.676ZM0.357,-0.643C0.348,-0.643 0.339,-0.641 0.332,-0.637C0.325,-0.633 0.317,-0.626 0.309,-0.614C0.301,-0.603 0.29,-0.579 0.278,-0.542C0.255,-0.474 0.229,-0.391 0.201,-0.293C0.18,-0.218 0.167,-0.17 0.163,-0.149C0.156,-0.119 0.153,-0.092 0.153,-0.069C0.153,-0.053 0.158,-0.041 0.166,-0.032C0.175,-0.023 0.186,-0.018 0.198,-0.018C0.212,-0.018 0.222,-0.022 0.231,-0.029C0.248,-0.043 0.263,-0.068 0.274,-0.103C0.301,-0.185 0.334,-0.297 0.375,-0.44C0.393,-0.504 0.402,-0.553 0.402,-0.589C0.402,-0.606 0.398,-0.619 0.389,-0.628C0.38,-0.638 0.37,-0.643 0.357,-0.643Z" style="fill:rgb(89,89,89);fill-rule:nonzero;"/>
            </g>
        </g>
        <g transform="matrix(0.811796,0,0,0.789077,649.296,113.699)">
            <g transform="matrix(44.8822,0,0,44.8822,123.937,110.245)">
                <path d="M0.045,-0.423L0.216,-0.453C0.247,-0.404 0.269,-0.351 0.281,-0.292C0.313,-0.34 0.337,-0.373 0.354,-0.392C0.375,-0.417 0.393,-0.434 0.407,-0.441C0.422,-0.449 0.437,-0.453 0.453,-0.453C0.471,-0.453 0.484,-0.448 0.494,-0.438C0.503,-0.428 0.508,-0.415 0.508,-0.398C0.508,-0.383 0.503,-0.37 0.494,-0.36C0.484,-0.35 0.472,-0.345 0.458,-0.345C0.448,-0.345 0.436,-0.347 0.422,-0.351C0.409,-0.355 0.399,-0.356 0.394,-0.356C0.38,-0.356 0.367,-0.352 0.355,-0.342C0.338,-0.328 0.317,-0.3 0.292,-0.256C0.32,-0.159 0.342,-0.099 0.359,-0.078C0.369,-0.065 0.379,-0.059 0.389,-0.059C0.397,-0.059 0.404,-0.061 0.411,-0.065C0.42,-0.072 0.435,-0.089 0.454,-0.116L0.472,-0.106C0.443,-0.06 0.415,-0.027 0.388,-0.008C0.367,0.006 0.346,0.014 0.326,0.014C0.305,0.014 0.288,0.009 0.274,-0C0.26,-0.01 0.248,-0.025 0.237,-0.046C0.227,-0.067 0.214,-0.1 0.199,-0.146C0.161,-0.098 0.131,-0.063 0.11,-0.04C0.088,-0.018 0.07,-0.003 0.056,0.003C0.041,0.01 0.026,0.014 0.01,0.014C-0.007,0.014 -0.021,0.009 -0.031,-0.001C-0.04,-0.011 -0.045,-0.023 -0.045,-0.039C-0.045,-0.056 -0.04,-0.069 -0.029,-0.08C-0.019,-0.091 -0.005,-0.096 0.012,-0.096C0.021,-0.096 0.03,-0.094 0.042,-0.088C0.058,-0.081 0.069,-0.077 0.077,-0.077C0.086,-0.077 0.095,-0.079 0.102,-0.083C0.112,-0.087 0.124,-0.098 0.139,-0.114C0.148,-0.124 0.165,-0.146 0.189,-0.179C0.158,-0.295 0.134,-0.364 0.116,-0.387C0.105,-0.401 0.091,-0.409 0.074,-0.409C0.065,-0.409 0.055,-0.407 0.042,-0.405L0.045,-0.423Z" style="fill:rgb(89,89,89);fill-rule:nonzero;"/>
            </g>
            <g transform="matrix(29.9215,0,0,29.9215,146.378,110.245)">
                <path d="M0.354,-0.676C0.386,-0.676 0.413,-0.667 0.435,-0.648C0.458,-0.63 0.474,-0.605 0.484,-0.575C0.494,-0.544 0.499,-0.514 0.499,-0.484C0.499,-0.432 0.492,-0.379 0.478,-0.324C0.465,-0.269 0.446,-0.218 0.422,-0.172C0.398,-0.126 0.371,-0.087 0.342,-0.056C0.323,-0.036 0.301,-0.02 0.274,-0.006C0.248,0.007 0.221,0.014 0.193,0.014C0.167,0.014 0.144,0.006 0.123,-0.01C0.102,-0.025 0.085,-0.048 0.073,-0.078C0.061,-0.108 0.055,-0.14 0.055,-0.174C0.055,-0.249 0.069,-0.324 0.096,-0.399C0.118,-0.462 0.146,-0.516 0.179,-0.561C0.213,-0.607 0.243,-0.637 0.271,-0.653C0.298,-0.668 0.326,-0.676 0.354,-0.676ZM0.357,-0.643C0.348,-0.643 0.339,-0.641 0.332,-0.637C0.325,-0.633 0.317,-0.626 0.309,-0.614C0.301,-0.603 0.29,-0.579 0.278,-0.542C0.255,-0.474 0.229,-0.391 0.201,-0.293C0.18,-0.218 0.167,-0.17 0.163,-0.149C0.156,-0.119 0.153,-0.092 0.153,-0.069C0.153,-0.053 0.158,-0.041 0.166,-0.032C0.175,-0.023 0.186,-0.018 0.198,-0.018C0.212,-0.018 0.222,-0.022 0.231,-0.029C0.248,-0.043 0.263,-0.068 0.274,-0.103C0.301,-0.185 0.334,-0.297 0.375,-0.44C0.393,-0.504 0.402,-0.553 0.402,-0.589C0.402,-0.606 0.398,-0.619 0.389,-0.628C0.38,-0.638 0.37,-0.643 0.357,-0.643Z" style="fill:rgb(89,89,89);fill-rule:nonzero;"/>
            </g>
        </g>
        <g transform="matrix(0.811796,0,0,0.789077,501.129,73.2515)">
            <g transform="matrix(44.8822,0,0,44.8822,123.937,110.245)">
                <path d="M0.386,-0.677C0.429,-0.677 0.464,-0.662 0.491,-0.631C0.517,-0.601 0.53,-0.56 0.53,-0.509C0.53,-0.446 0.514,-0.371 0.481,-0.283C0.448,-0.194 0.404,-0.123 0.35,-0.068C0.295,-0.014 0.24,0.014 0.184,0.014C0.139,0.014 0.104,-0.002 0.078,-0.033C0.052,-0.065 0.04,-0.105 0.04,-0.154C0.04,-0.208 0.052,-0.273 0.078,-0.349C0.103,-0.424 0.133,-0.486 0.167,-0.535C0.202,-0.584 0.238,-0.62 0.276,-0.643C0.314,-0.666 0.351,-0.677 0.386,-0.677ZM0.377,-0.356L0.41,-0.476C0.421,-0.518 0.427,-0.552 0.427,-0.578C0.427,-0.626 0.409,-0.649 0.374,-0.649C0.345,-0.649 0.319,-0.629 0.294,-0.588C0.27,-0.547 0.24,-0.47 0.206,-0.356L0.377,-0.356ZM0.198,-0.329C0.16,-0.204 0.141,-0.121 0.141,-0.08C0.141,-0.061 0.146,-0.045 0.157,-0.033C0.167,-0.021 0.181,-0.015 0.196,-0.015C0.228,-0.015 0.257,-0.04 0.283,-0.092C0.31,-0.143 0.339,-0.222 0.37,-0.329L0.198,-0.329Z" style="fill:rgb(119,187,185);fill-rule:nonzero;"/>
            </g>
            <g transform="matrix(29.9215,0,0,29.9215,147.233,110.245)">
                <path d="M0.155,-0.662L0.417,-0.662C0.475,-0.662 0.516,-0.659 0.542,-0.653C0.574,-0.645 0.6,-0.63 0.618,-0.607C0.636,-0.585 0.645,-0.559 0.645,-0.53C0.645,-0.507 0.638,-0.483 0.624,-0.458C0.609,-0.434 0.588,-0.414 0.559,-0.398C0.531,-0.382 0.487,-0.368 0.428,-0.354C0.489,-0.337 0.532,-0.315 0.556,-0.288C0.579,-0.261 0.591,-0.23 0.591,-0.194C0.591,-0.16 0.58,-0.127 0.556,-0.094C0.533,-0.062 0.502,-0.038 0.463,-0.023C0.424,-0.008 0.353,-0 0.25,-0L-0.025,-0L-0.019,-0.018C0.008,-0.018 0.027,-0.021 0.038,-0.025C0.05,-0.03 0.059,-0.038 0.066,-0.048C0.073,-0.058 0.081,-0.08 0.091,-0.112L0.209,-0.52C0.221,-0.561 0.227,-0.589 0.227,-0.603C0.227,-0.614 0.222,-0.623 0.213,-0.631C0.203,-0.638 0.182,-0.643 0.15,-0.644L0.155,-0.662ZM0.305,-0.37C0.349,-0.37 0.384,-0.377 0.409,-0.391C0.435,-0.404 0.455,-0.426 0.471,-0.456C0.486,-0.487 0.494,-0.515 0.494,-0.542C0.494,-0.568 0.486,-0.589 0.47,-0.604C0.454,-0.62 0.433,-0.628 0.406,-0.627L0.379,-0.626L0.305,-0.37ZM0.293,-0.333L0.208,-0.039C0.225,-0.038 0.237,-0.038 0.245,-0.038C0.318,-0.038 0.368,-0.058 0.396,-0.098C0.425,-0.139 0.439,-0.182 0.439,-0.229C0.439,-0.251 0.434,-0.27 0.423,-0.287C0.412,-0.304 0.398,-0.316 0.38,-0.323C0.363,-0.33 0.334,-0.333 0.293,-0.333Z" style="fill:rgb(119,187,185);fill-rule:nonzero;"/>
            </g>
        </g>
        <g transform="matrix(0.811796,0,0,0.789077,328.871,249.346)">
            <g transform="matrix(44.8822,0,0,44.8822,123.937,110.245)">
                <path d="M0.386,-0.677C0.429,-0.677 0.464,-0.662 0.491,-0.631C0.517,-0.601 0.53,-0.56 0.53,-0.509C0.53,-0.446 0.514,-0.371 0.481,-0.283C0.448,-0.194 0.404,-0.123 0.35,-0.068C0.295,-0.014 0.24,0.014 0.184,0.014C0.139,0.014 0.104,-0.002 0.078,-0.033C0.052,-0.065 0.04,-0.105 0.04,-0.154C0.04,-0.208 0.052,-0.273 0.078,-0.349C0.103,-0.424 0.133,-0.486 0.167,-0.535C0.202,-0.584 0.238,-0.62 0.276,-0.643C0.314,-0.666 0.351,-0.677 0.386,-0.677ZM0.377,-0.356L0.41,-0.476C0.421,-0.518 0.427,-0.552 0.427,-0.578C0.427,-0.626 0.409,-0.649 0.374,-0.649C0.345,-0.649 0.319,-0.629 0.294,-0.588C0.27,-0.547 0.24,-0.47 0.206,-0.356L0.377,-0.356ZM0.198,-0.329C0.16,-0.204 0.141,-0.121 0.141,-0.08C0.141,-0.061 0.146,-0.045 0.157,-0.033C0.167,-0.021 0.181,-0.015 0.196,-0.015C0.228,-0.015 0.257,-0.04 0.283,-0.092C0.31,-0.143 0.339,-0.222 0.37,-0.329L0.198,-0.329Z" style="fill:rgb(241,136,127);fill-rule:nonzero;"/>
            </g>
            <g transform="matrix(29.9215,0,0,29.9215,147.233,110.245)">
                <path d="M0.405,-0.213L0.2,-0.213L0.159,-0.163L0.112,-0.106C0.103,-0.094 0.097,-0.083 0.092,-0.074C0.089,-0.066 0.087,-0.059 0.087,-0.051C0.087,-0.043 0.092,-0.036 0.1,-0.03C0.108,-0.023 0.122,-0.019 0.141,-0.018L0.141,-0L-0.057,-0L-0.052,-0.018C-0.034,-0.021 -0.019,-0.027 -0.005,-0.037C0.013,-0.05 0.04,-0.076 0.074,-0.117L0.543,-0.677L0.565,-0.677L0.543,-0.135C0.542,-0.107 0.542,-0.09 0.542,-0.084C0.542,-0.062 0.546,-0.046 0.555,-0.036C0.564,-0.026 0.579,-0.02 0.6,-0.018L0.595,-0L0.308,-0L0.313,-0.018C0.342,-0.021 0.358,-0.023 0.362,-0.025C0.371,-0.029 0.38,-0.039 0.387,-0.053C0.395,-0.068 0.399,-0.093 0.401,-0.129L0.405,-0.213ZM0.405,-0.253L0.418,-0.469L0.234,-0.253L0.405,-0.253Z" style="fill:rgb(241,136,127);fill-rule:nonzero;"/>
            </g>
        </g>
    </g>
</svg>
